<svg width="122" height="24" viewBox="0 0 122 24" fill="none" xmlns="http://www.w3.org/2000/svg">
<path d="M25.5289 6.11221V16.885C25.5196 18.7689 24.756 20.5732 23.404 21.9055C22.052 23.2378 20.2209 23.9905 18.3087 24C16.0559 24 14.2121 23.1502 12.7774 21.4507C11.3265 23.1512 9.47405 24.001 7.22017 24C5.30797 23.9905 3.47686 23.2378 2.12485 21.9055C0.772851 20.5732 0.00923877 18.7689 0 16.885V6.11221H3.37929V16.885C3.38131 17.888 3.78662 18.8493 4.50649 19.5586C5.22636 20.2678 6.20213 20.6671 7.22017 20.6691C7.72336 20.6775 8.2231 20.5858 8.6895 20.3995C9.15589 20.2132 9.57937 19.9361 9.93461 19.5849C10.2983 19.2376 10.5877 18.822 10.7856 18.3627C10.9835 17.9033 11.086 17.4096 11.087 16.9106V6.11221H14.4678V16.9106C14.4602 17.4085 14.5561 17.9027 14.7499 18.3627C14.9436 18.8227 15.231 19.2386 15.5943 19.5849C15.9495 19.9361 16.373 20.2132 16.8394 20.3995C17.3058 20.5858 17.8055 20.6775 18.3087 20.6691C19.327 20.6679 20.3032 20.2689 21.0233 19.5595C21.7433 18.85 22.1484 17.8882 22.1496 16.885V6.11221H25.5289Z" fill="white"/>
<path d="M38.2453 16.7253C38.6077 17.8506 39.3146 18.8379 40.2689 19.5518C41.2483 20.2823 42.4458 20.6725 43.6742 20.6616C44.7195 20.6529 45.7505 20.4207 46.6958 19.981C47.7555 19.5091 48.5324 18.9118 49.0266 18.189L51.8175 20.0562C51.0105 21.2338 49.8428 22.184 48.3144 22.9068C46.8733 23.6119 45.2877 23.9833 43.6788 23.9925C42.4823 24.0109 41.2947 23.7875 40.1894 23.336C39.084 22.8846 38.0842 22.2148 37.2518 21.3678C35.4758 19.6201 34.5883 17.5179 34.5894 15.0614C34.5914 12.6883 35.5492 10.4129 37.2526 8.73504C38.9559 7.05713 41.2655 6.11381 43.6742 6.11221C46.1675 6.11221 48.3017 6.9866 50.0766 8.73538C50.9362 9.55454 51.6166 10.5384 52.0758 11.6263C52.535 12.7142 52.7633 13.8833 52.7467 15.0614C52.7474 15.6115 52.6962 16.1605 52.5939 16.7013L38.2453 16.7253ZM43.6742 9.43559C42.4457 9.42398 41.248 9.8143 40.2689 10.5454C39.3096 11.2649 38.6022 12.2614 38.2453 13.3959H49.0786C48.7223 12.2615 48.0153 11.265 47.0565 10.5454C46.085 9.8165 44.8953 9.42614 43.6742 9.43559Z" fill="white"/>
<path d="M61.5641 23.9925V15.0614C61.5452 13.8825 61.7717 12.7123 62.2296 11.623C62.6875 10.5337 63.3672 9.54836 64.2265 8.72785C66.0025 6.98409 68.1367 6.11221 70.629 6.11221C73.0401 6.11221 75.3524 7.05586 77.0573 8.73557C78.7621 10.4153 79.7199 12.6935 79.7199 15.0689V24H76.3391V15.0614C76.3391 13.5725 75.7388 12.1446 74.6702 11.0919C73.6017 10.0391 72.1524 9.44764 70.6412 9.44764C69.1301 9.44764 67.6808 10.0391 66.6122 11.0919C65.5437 12.1446 64.9434 13.5725 64.9434 15.0614V23.9925H61.5641Z" fill="white"/>
<path d="M88.5432 0H91.9225V3.22851H88.5432V0ZM88.5432 6.10467H91.9225V23.9925H88.5432V6.10467Z" fill="white"/>
<path d="M122 6.11221L114.318 22.3271C113.809 23.4364 112.929 23.9915 111.68 23.9925C110.431 23.9935 109.543 23.4384 109.018 22.3271L101.336 6.11221H105.074L111.246 19.1302C111.284 19.2127 111.345 19.2827 111.422 19.3319C111.499 19.381 111.589 19.4071 111.681 19.4071C111.773 19.4071 111.863 19.381 111.94 19.3319C112.017 19.2827 112.078 19.2127 112.116 19.1302L118.287 6.11221H122Z" fill="white"/>
</svg>
